PathFileType	4	(X/Y/Z)	D:\Share\Shared_Data\Ergonomics\Sit To Stand Pertubation\S2\Perturbed.trc
DataRate	CameraRate	NumFrames	NumMarkers	Units	OrigDataRate	OrigDataStartFrame	OrigNumFrames	
100	100	19	18	m	100	18608	191
Frame#	Time	R_Toe			R_ASIS			R_Pelvis			V_Sacral			L_Pelvis			L_ASIS			Clavical			R_Acromium			L_Acromium			Sternum			Torso			R_Thigh_Med			R_Thigh_Lat			R_Thigh			R_Shank_Med			R_Shank_Lat			R_Shank			R_Heel			
		X1	Y1	Z1	X2	Y2	Z2	X3	Y3	Z3	X4	Y4	Z4	X5	Y5	Z5	X6	Y6	Z6	X7	Y7	Z7	X8	Y8	Z8	X9	Y9	Z9	X10	Y10	Z10	X11	Y11	Z11	X12	Y12	Z12	X13	Y13	Z13	X14	Y14	Z14	X15	Y15	Z15	X16	Y16	Z16	X17	Y17	Z17	X18	Y18	Z18	

18608	186.07	0.4151904	0.071289673	0.13848979	-0.0044691896	0.63791626	0.13035892	-0.082231888	0.66539044	0.16688687	-0.22590367	0.65164423	0.012944801	-0.10726641	0.68087073	-0.16608112	-0.013302	0.65902661	-0.14268288	0.28037149	0.87793231	-0.010276123	0.22598582	0.97079846	0.18954045	0.23381613	0.9698147	-0.19831433	0.20987706	0.73280505	-0.0076013117	0.26510907	0.84529425	-0.11960448	0.33451028	0.50543558	0.13841096	0.29778021	0.50783414	0.24018329	0.14817096	0.62917773	0.18666127	0.28022729	0.11197381	0.10139551	0.2566944	0.09872773	0.19196227	0.29358688	0.35358243	0.2433961	0.17764444	0.059180397	0.13659714
18609	186.08	0.41520859	0.071689148	0.13881956	0.00090977502	0.63955975	0.13023853	-0.07647464	0.66802362	0.16671524	-0.22000783	0.65572186	0.012728871	-0.10087064	0.68355798	-0.16610884	-0.0073414731	0.66061816	-0.1428213	0.28931711	0.87640881	-0.010334834	0.23510103	0.97055328	0.189205	0.24303008	0.96931494	-0.19823787	0.2170009	0.73183734	-0.0076384377	0.27288916	0.84427118	-0.11922817	0.33803168	0.50467331	0.13819463	0.30152573	0.50746005	0.24000716	0.15276668	0.62994165	0.18624512	0.28010605	0.11182874	0.10141402	0.2567482	0.09854557	0.19194513	0.29616193	0.35314114	0.2431595	0.17766621	0.059041073	0.13649413
18610	186.09	0.41521747	0.072083931	0.1391232	0.0061985931	0.64141052	0.13004398	-0.070784775	0.67069885	0.16655486	-0.21434044	0.65941656	0.012465735	-0.094759995	0.68607776	-0.1661989	-0.0016265299	0.66227582	-0.14303781	0.29788867	0.87534668	-0.010362473	0.24369073	0.97066498	0.18889615	0.25178081	0.96917963	-0.19814215	0.22358025	0.73134222	-0.0076210008	0.28028897	0.8436347	-0.118779	0.34170193	0.5038559	0.13778751	0.30547205	0.50707382	0.23965578	0.15763617	0.63070441	0.18571381	0.28000494	0.11169881	0.10144584	0.2568175	0.09839196	0.19198196	0.29880768	0.35274197	0.24282014	0.17768492	0.058912983	0.13638608
18611	186.1	0.41521393	0.072478477	0.13939259	0.011366835	0.64347668	0.12979858	-0.065198494	0.67341272	0.16642883	-0.20893582	0.66271375	0.012146267	-0.088954689	0.68844122	-0.16632967	0.0038324363	0.66402191	-0.14330942	0.30600385	0.87480273	-0.010364185	0.25171643	0.97115936	0.18861911	0.2600289	0.96944165	-0.19804019	0.22962531	0.73136169	-0.007553412	0.28728888	0.84343616	-0.11829067	0.34551346	0.50298785	0.1372325	0.30959525	0.50666547	0.23916647	0.16276079	0.63147186	0.18513374	0.27998962	0.11162047	0.10150284	0.25689151	0.098260262	0.19206509	0.30150677	0.35237857	0.24240962	0.1776967	0.05880043	0.13628534
18612	186.11	0.41519748	0.072872551	0.13962866	0.016402281	0.64575342	0.12952425	-0.059734261	0.67617242	0.16634938	-0.20378935	0.66566193	0.011768869	-0.083445457	0.69068585	-0.16647572	0.0090494099	0.66587561	-0.14361368	0.31358932	0.87482294	-0.010349929	0.25915781	0.97205853	0.18837813	0.26774185	0.97013251	-0.19794646	0.23519377	0.73191931	-0.0074453778	0.2938743	0.84372388	-0.11780623	0.34944345	0.50207358	0.13657526	0.31386115	0.50622641	0.23857738	0.16810759	0.63224493	0.18456117	0.28009369	0.1116133	0.10159042	0.25696274	0.098145699	0.1921869	0.30424438	0.35204129	0.24195944	0.17769907	0.058705002	0.13620146
18613	186.12	0.41517004	0.073261108	0.13983473	0.021312254	0.6482218	0.12924216	-0.054390274	0.67899432	0.16632176	-0.19885904	0.66837183	0.011348678	-0.078194145	0.69287433	-0.16661206	0.014059307	0.66784924	-0.14392815	0.32058914	0.87543884	-0.010333382	0.26601517	0.97337976	0.18817555	0.27489713	0.97128174	-0.19787468	0.24037714	0.73301941	-0.0073154526	0.30003586	0.84454041	-0.11737204	0.35346027	0.50111996	0.13585677	0.31822745	0.5057522	0.23792229	0.17362817	0.63302374	0.18403845	0.28030576	0.11167331	0.10170526	0.25702737	0.098044838	0.19233926	0.30700967	0.35171967	0.24149547	0.17769092	0.05862286	0.13613704
18614	186.13	0.41513544	0.073635139	0.14001338	0.026120493	0.65085138	0.12897333	-0.049147278	0.68190186	0.16634767	-0.19407819	0.6710014	0.010926444	-0.073141449	0.69508728	-0.16671851	0.018907984	0.66994861	-0.14422972	0.32697116	0.87666559	-0.010328458	0.27231009	0.97513464	0.18801181	0.28148425	0.97291455	-0.19783484	0.24528148	0.73465125	-0.0071899853	0.30577258	0.84591846	-0.11703012	0.35752615	0.50013614	0.13510674	0.32264832	0.50524396	0.23722664	0.17926442	0.63381049	0.1835892	0.28058743	0.11178152	0.10183838	0.25708563	0.097954384	0.19251434	0.30979416	0.35140424	0.24103477	0.17767305	0.05854335	0.13608763
18615	186.14	0.41509872	0.073983192	0.14016536	0.030859161	0.65361255	0.12873705	-0.043975761	0.68492401	0.16642799	-0.18937386	0.673724	0.010558806	-0.068220612	0.69741351	-0.16678195	0.023642075	0.67218018	-0.14449692	0.33273181	0.87850281	-0.01034494	0.27808298	0.97732837	0.18788634	0.28750681	0.97505072	-0.19783034	0.25000867	0.73679431	-0.0070967102	0.31109662	0.84787842	-0.11681005	0.36159958	0.49913147	0.13434044	0.32707907	0.50470764	0.23650525	0.18495863	0.63461108	0.18321594	0.28089487	0.11191419	0.10197926	0.25714175	0.097870758	0.19270601	0.31258966	0.35108792	0.24058461	0.17764825	0.058448257	0.13604279
18616	186.15	0.41506534	0.074293991	0.14028963	0.035558979	0.65648962	0.12854668	-0.038844196	0.68809253	0.16656395	-0.18468486	0.67669244	0.010292196	-0.063372337	0.69993787	-0.16679507	0.028302082	0.6745603	-0.14471423	0.33789832	0.88093811	-0.010386612	0.2833887	0.97995959	0.18779916	0.29298416	0.97770331	-0.19785652	0.25464333	0.73942426	-0.0070567455	0.31603732	0.85042615	-0.11672309	0.36563824	0.4981149	0.13355951	0.33147888	0.50415277	0.23576201	0.19066202	0.63543506	0.18290067	0.28119098	0.1120493	0.10211835	0.25720316	0.097790939	0.19290956	0.31538504	0.35076727	0.24014307	0.17762157	0.058311836	0.13598795
18617	186.16	0.41504065	0.074557999	0.14038252	0.040242008	0.65948615	0.128407	-0.033725922	0.69143927	0.16675493	-0.17997447	0.68001453	0.010149529	-0.05855629	0.70273163	-0.1667541	0.032915409	0.67711871	-0.14487514	0.34252728	0.88395148	-0.010452962	0.28829044	0.98302142	0.18775153	0.29794971	0.98087872	-0.19790228	0.25924588	0.74251917	-0.0070796595	0.32064029	0.8535542	-0.11676075	0.36960257	0.49709439	0.13275603	0.33581226	0.50359045	0.23499144	0.19633815	0.63629456	0.18261038	0.28145157	0.11216974	0.10224795	0.25727802	0.097714333	0.19311995	0.31816434	0.35044244	0.23970097	0.17759976	0.058102657	0.13590685
18618	186.17	0.41502853	0.074768272	0.14043739	0.044918106	0.66262286	0.12831523	-0.028604502	0.69499335	0.16699716	-0.17523418	0.68374872	0.010135273	-0.053756886	0.7058457	-0.16665727	0.037490585	0.67989203	-0.14498134	0.34669873	0.88751892	-0.010541453	0.29285245	0.98650299	0.18774582	0.30244745	0.98457513	-0.19795374	0.26384863	0.74606195	-0.0071637888	0.32496033	0.85724347	-0.11689896	0.37345721	0.49607645	0.13191699	0.34004877	0.50303204	0.23418216	0.20196214	0.63720245	0.18230699	0.28166577	0.11226421	0.10236165	0.25737384	0.097642891	0.19333076	0.32090735	0.35011655	0.23924547	0.17759039	0.057788334	0.13578494
18619	186.18	0.41503107	0.074922012	0.14044597	0.049584194	0.66592908	0.12826251	-0.023476551	0.6987793	0.1672831	-0.17047873	0.68791211	0.010242351	-0.048982517	0.70930908	-0.16650548	0.042016972	0.68291443	-0.14504132	0.3505058	0.89161566	-0.010647817	0.29713351	0.9903913	0.18778491	0.30652753	0.98878284	-0.19799756	0.26845578	0.75004089	-0.0072990408	0.32905261	0.8614668	-0.11710569	0.37717288	0.49506696	0.13102835	0.34416251	0.50248724	0.23332053	0.20751759	0.63817053	0.18195825	0.28183264	0.11232678	0.10245403	0.25749606	0.097579399	0.19353557	0.32359097	0.34979599	0.23876332	0.1775999	0.05734388	0.13561313
18620	186.19	0.41504752	0.075022232	0.14040135	0.054226257	0.66943323	0.12823555	-0.018351143	0.70281427	0.16760149	-0.16573633	0.69249548	0.010457008	-0.044259399	0.71313	-0.16630334	0.046469521	0.68621008	-0.14506863	0.3540433	0.89621753	-0.010765515	0.30118173	0.99467279	0.18787073	0.31024228	0.99348517	-0.19802307	0.27304865	0.75444794	-0.0074690194	0.33296579	0.8661922	-0.11734835	0.38072586	0.49407178	0.13007642	0.34813107	0.50196368	0.23239314	0.21299277	0.63920953	0.18154523	0.28195657	0.11235651	0.10252142	0.25764688	0.097525963	0.19372971	0.32618954	0.34948956	0.2382421	0.17763083	0.056765179	0.13539316
18621	186.2	0.41507483	0.075078079	0.14030043	0.058823051	0.67315662	0.1282197	-0.013246612	0.70710846	0.16794005	-0.16103854	0.69747711	0.010762343	-0.039622398	0.71730066	-0.16605916	0.050816563	0.68978912	-0.14507899	0.35739737	0.90129944	-0.010886671	0.30503336	0.99933417	0.18800252	0.31364322	0.99866003	-0.19802292	0.27759393	0.75927716	-0.0076538725	0.33673779	0.87138568	-0.11759799	0.3840957	0.49309732	0.12904858	0.35193445	0.50146771	0.2313884	0.21837755	0.64032739	0.18106342	0.2820441	0.11235683	0.10256319	0.25782458	0.097483475	0.19391121	0.3286752	0.34920825	0.23767052	0.17767961	0.056087849	0.13514479
18622	186.21	0.41510812	0.075102928	0.14014423	0.063350739	0.67711224	0.128202	-0.0081858664	0.71166528	0.16828957	-0.1564126	0.70283148	0.011139603	-0.035105785	0.72180365	-0.16578372	0.055028316	0.69364996	-0.14508707	0.36063895	0.90683398	-0.011004745	0.30871381	1.0043644	0.1881756	0.31677786	1.0042812	-0.19799309	0.2820506	0.76452142	-0.0078347845	0.34039398	0.87701361	-0.11783082	0.38726419	0.492151	0.12793453	0.3555556	0.5010054	0.2302977	0.22366183	0.64152942	0.18051854	0.28210117	0.11233408	0.10258202	0.25802344	0.097451279	0.19408035	0.33101953	0.34896405	0.23703899	0.17773601	0.055396523	0.13490755
18623	186.22	0.41514221	0.075112213	0.13993678	0.067787651	0.68130548	0.12817311	-0.0031915765	0.71648328	0.16864552	-0.15187703	0.7085332	0.011570905	-0.030736162	0.72661823	-0.16548946	0.059082718	0.69778522	-0.1451044	0.36382013	0.91279047	-0.011116534	0.312241	1.0097529	0.18838202	0.31968655	1.0103195	-0.19793231	0.2863768	0.77017023	-0.0079979262	0.34394812	0.88304468	-0.11802884	0.39021448	0.49124017	0.12672839	0.35898105	0.50058301	0.22911655	0.22883565	0.64281708	0.1799198	0.28213181	0.11229531	0.10258234	0.25823511	0.097426895	0.19423856	0.33319772	0.34876807	0.23634149	0.17778702	0.054795643	0.13472588
18624	186.23	0.41517233	0.075120857	0.13968271	0.072118286	0.68573535	0.12812781	0.0017178224	0.72155518	0.16900699	-0.14744072	0.71455713	0.012043877	-0.026528757	0.73172443	-0.16518793	0.06296751	0.70218555	-0.14513875	0.36697296	0.91913525	-0.011221433	0.3156283	1.015488	0.18861215	0.32240021	1.0167438	-0.19784135	0.29053592	0.77620825	-0.0081367016	0.34740472	0.88944965	-0.11818067	0.39292969	0.49037115	0.12543061	0.36220126	0.50020544	0.22784544	0.23388966	0.64418829	0.17927449	0.28213757	0.11224679	0.10256866	0.25844904	0.097406013	0.19438733	0.33519272	0.34862808	0.23557693	0.1778231	0.054355625	0.13462592
18625	186.24	0.41519531	0.075140091	0.13938638	0.076334389	0.69039111	0.12806422	0.0065306225	0.72686511	0.1693745	-0.14310411	0.72087817	0.012552737	-0.022486614	0.73710516	-0.16488716	0.066679749	0.70684052	-0.14519421	0.3701091	0.92583563	-0.01131922	0.31888657	1.0215553	0.18885672	0.32494006	1.0235218	-0.19772261	0.29450113	0.78261462	-0.0082519798	0.35076178	0.89620129	-0.11828248	0.39539517	0.48954825	0.12404838	0.36521072	0.4998765	0.2264904	0.23881673	0.64563812	0.17858632	0.28211911	0.11219323	0.10254475	0.25865445	0.097383118	0.19452716	0.3369971	0.34854697	0.23474878	0.17784079	0.054089565	0.13460741
18626	186.25	0.41520935	0.075175316	0.13905276	0.08043322	0.69525018	0.12798257	0.011242561	0.73238788	0.16974886	-0.13886166	0.72747382	0.013094344	-0.018601744	0.74274414	-0.16459077	0.070224518	0.71173444	-0.14527229	0.37322293	0.93286053	-0.01140913	0.32202521	1.0279371	0.18910753	0.32731918	1.0306212	-0.1975797	0.2982583	0.78936377	-0.0083502197	0.35401312	0.90327332	-0.11833865	0.39760471	0.4887746	0.12259489	0.36800674	0.49959814	0.22506323	0.24361201	0.64715924	0.17785712	0.28207767	0.11213788	0.10251349	0.2588421	0.097353653	0.19465686	0.33861249	0.34852225	0.23386478	0.177841	0.05397044	0.13465323
